<svg width="18" height="18" viewBox="0 0 18 18" fill="none" xmlns="http://www.w3.org/2000/svg">
<path d="M8.60627 10.8563L5.88752 8.1375C5.85002 8.1 5.8219 8.05938 5.80315 8.01562C5.7844 7.97188 5.77502 7.925 5.77502 7.875C5.77502 7.775 5.8094 7.6875 5.87815 7.6125C5.9469 7.5375 6.03752 7.5 6.15002 7.5H11.85C11.9625 7.5 12.0531 7.5375 12.1219 7.6125C12.1906 7.6875 12.225 7.775 12.225 7.875C12.225 7.9 12.1875 7.9875 12.1125 8.1375L9.39377 10.8563C9.33127 10.9188 9.26877 10.9625 9.20627 10.9875C9.14377 11.0125 9.07502 11.025 9.00002 11.025C8.92502 11.025 8.85627 11.0125 8.79377 10.9875C8.73127 10.9625 8.66877 10.9188 8.60627 10.8563Z" fill="#767676"/>
</svg>
