<svg width="24" height="24" viewBox="0 0 24 24" fill="none" xmlns="http://www.w3.org/2000/svg">
<rect x="0.5" y="0.5" width="23" height="23" rx="11.5" fill="#E31D1C"/>
<rect x="0.5" y="0.5" width="23" height="23" rx="11.5" stroke="#F2F2F2"/>
<path fill-rule="evenodd" clip-rule="evenodd" d="M15.1813 7.27836L14.2864 7.80663L14.4905 6.77577L13.7452 6.00428L14.7544 5.96256L15.1813 5L15.6082 5.96256H16.6157L15.8721 6.77577L16.096 7.80663L15.1813 7.27836Z" fill="#FECA00"/>
<path fill-rule="evenodd" clip-rule="evenodd" d="M8.09544 11.6606L5.54323 13.004L6.12537 10.3824L4 8.4203L6.87787 8.31421L8.09544 5.86621L9.31301 8.31421H12.186L10.0655 10.3824L10.7039 13.004L8.09544 11.6606Z" fill="#FECA00"/>
<path fill-rule="evenodd" clip-rule="evenodd" d="M16.9532 10.7433L16.0582 11.2716L16.2624 10.2407L15.5171 9.46924L16.5262 9.42753L16.9532 8.46497L17.3801 9.42753H18.3875L17.644 10.2407L17.8678 11.2716L16.9532 10.7433Z" fill="#FECA00"/>
<path fill-rule="evenodd" clip-rule="evenodd" d="M16.0672 14.2083L15.1723 14.7366L15.3764 13.7057L14.6312 12.9342L15.6403 12.8925L16.0672 11.9299L16.4942 12.8925H17.5016L16.758 13.7057L16.9819 14.7366L16.0672 14.2083Z" fill="#FECA00"/>
<path fill-rule="evenodd" clip-rule="evenodd" d="M13.4095 16.807L12.5145 17.3353L12.7186 16.3045L11.9734 15.533L12.9825 15.4912L13.4095 14.5287L13.8364 15.4912H14.8438L14.1003 16.3045L14.3241 17.3353L13.4095 16.807Z" fill="#FECA00"/>
</svg>
