<svg width="26" height="26" viewBox="0 0 26 26" fill="none" xmlns="http://www.w3.org/2000/svg">
<g clip-path="url(#clip0_6_288)">
<rect x="1" y="1" width="24" height="24" rx="12" fill="#F7FCFF"/>
<path fill-rule="evenodd" clip-rule="evenodd" d="M0 2H29.3333V24H0V2Z" fill="#F7FCFF"/>
<path fill-rule="evenodd" clip-rule="evenodd" d="M0 15.4445V17.2778H29.3333V15.4445H0Z" fill="#E31D1C"/>
<path fill-rule="evenodd" clip-rule="evenodd" d="M0 18.8055V20.6389H29.3333V18.8055H0Z" fill="#E31D1C"/>
<path fill-rule="evenodd" clip-rule="evenodd" d="M0 8.72217V10.5555H29.3333V8.72217H0Z" fill="#E31D1C"/>
<path fill-rule="evenodd" clip-rule="evenodd" d="M0 22.1666V24H29.3333V22.1666H0Z" fill="#E31D1C"/>
<path fill-rule="evenodd" clip-rule="evenodd" d="M0 12.0834V13.9167H29.3333V12.0834H0Z" fill="#E31D1C"/>
<path fill-rule="evenodd" clip-rule="evenodd" d="M0 2V3.83333H29.3333V2H0Z" fill="#E31D1C"/>
<path fill-rule="evenodd" clip-rule="evenodd" d="M0 5.36108V7.19442H29.3333V5.36108H0Z" fill="#E31D1C"/>
<rect y="2" width="18.3333" height="11.9167" fill="#2E42A5"/>
<path d="M1.8808 11.1373H2.539L2.0224 11.6637L2.2226 12.4938L1.57904 12.027L0.913025 12.4938L1.13763 11.6637L0.546814 11.1373H1.3183L1.57806 10.4596L1.8808 11.1373ZM5.54779 11.1373H6.20599L5.68842 11.6637L5.88861 12.4938L5.24506 12.027L4.58002 12.4938L4.80463 11.6637L4.21381 11.1373H4.98529L5.24408 10.4596L5.54779 11.1373ZM9.21478 11.1373H9.87299L9.35541 11.6637L9.5556 12.4938L8.91205 12.027L8.24603 12.4938L8.47162 11.6637L7.87982 11.1373H8.65228L8.91107 10.4596L9.21478 11.1373ZM12.8808 11.1373H13.539L13.0224 11.6637L13.2226 12.4938L12.5781 12.027L11.913 12.4938L12.1376 11.6637L11.5468 11.1373H12.3183L12.5781 10.4596L12.8808 11.1373ZM16.5478 11.1373H17.206L16.6884 11.6637L16.8886 12.4938L16.2451 12.027L15.58 12.4938L15.8046 11.6637L15.2138 11.1373H15.9853L16.2441 10.4596L16.5478 11.1373ZM3.71478 9.30432H4.37299L3.85541 9.82971L4.0556 10.6608L3.41205 10.194L2.74603 10.6608L2.97162 9.82971L2.37982 9.30432H3.15228L3.41107 8.62659L3.71478 9.30432ZM7.3808 9.30432H8.039L7.5224 9.82971L7.7226 10.6608L7.07904 10.194L6.41302 10.6608L6.63763 9.82971L6.04681 9.30432H6.8183L7.07806 8.62659L7.3808 9.30432ZM11.0478 9.30432H11.706L11.1884 9.82971L11.3886 10.6608L10.7451 10.194L10.08 10.6608L10.3046 9.82971L9.71381 9.30432H10.4853L10.7441 8.62659L11.0478 9.30432ZM14.7148 9.30432H15.373L14.8554 9.82971L15.0556 10.6608L14.412 10.194L13.746 10.6608L13.9716 9.82971L13.3798 9.30432H14.1523L14.4111 8.62659L14.7148 9.30432ZM1.8808 7.47034H2.539L2.0224 7.9967L2.2226 8.82678L1.57904 8.36096L0.913025 8.82678L1.13763 7.9967L0.546814 7.47034H1.3183L1.57806 6.79358L1.8808 7.47034ZM5.54779 7.47034H6.20599L5.68842 7.9967L5.88861 8.82678L5.24506 8.36096L4.58002 8.82678L4.80463 7.9967L4.21381 7.47034H4.98529L5.24408 6.79358L5.54779 7.47034ZM9.21478 7.47034H9.87299L9.35541 7.9967L9.5556 8.82678L8.91205 8.36096L8.24603 8.82678L8.47162 7.9967L7.87982 7.47034H8.65228L8.91107 6.79358L9.21478 7.47034ZM12.8808 7.47034H13.539L13.0224 7.9967L13.2226 8.82678L12.5781 8.36096L11.913 8.82678L12.1376 7.9967L11.5468 7.47034H12.3183L12.5781 6.79358L12.8808 7.47034ZM16.5478 7.47034H17.206L16.6884 7.9967L16.8886 8.82678L16.2451 8.36096L15.58 8.82678L15.8046 7.9967L15.2138 7.47034H15.9853L16.2441 6.79358L16.5478 7.47034ZM3.71478 5.63733H4.37299L3.85541 6.1637L4.0556 6.99377L3.41205 6.52698L2.74603 6.99377L2.97162 6.1637L2.37982 5.63733H3.15228L3.41107 4.95959L3.71478 5.63733ZM7.3808 5.63733H8.039L7.5224 6.1637L7.7226 6.99377L7.07904 6.52698L6.41302 6.99377L6.63763 6.1637L6.04681 5.63733H6.8183L7.07806 4.95959L7.3808 5.63733ZM11.0478 5.63733H11.706L11.1884 6.1637L11.3886 6.99377L10.7451 6.52698L10.08 6.99377L10.3046 6.1637L9.71381 5.63733H10.4853L10.7441 4.95959L11.0478 5.63733ZM14.7148 5.63733H15.373L14.8554 6.1637L15.0556 6.99377L14.412 6.52698L13.746 6.99377L13.9716 6.1637L13.3798 5.63733H14.1523L14.4111 4.95959L14.7148 5.63733ZM1.8808 3.80432H2.539L2.0224 4.32971L2.2226 5.16077L1.57806 4.69397L0.913025 5.16077L1.13763 4.32971L0.546814 3.80432H1.3183L1.57806 3.12659L1.8808 3.80432ZM5.54779 3.80432H6.20599L5.68842 4.32971L5.88861 5.16077L5.24506 4.69397L4.58002 5.16077L4.80463 4.32971L4.21381 3.80432H4.98529L5.24408 3.12659L5.54779 3.80432ZM9.21478 3.80432H9.87299L9.35541 4.32971L9.5556 5.16077L8.91205 4.69397L8.24603 5.16077L8.47162 4.32971L7.87982 3.80432H8.65228L8.91107 3.12659L9.21478 3.80432ZM12.8808 3.80432H13.539L13.0224 4.32971L13.2226 5.16077L12.5781 4.69397L11.913 5.16077L12.1376 4.32971L11.5468 3.80432H12.3183L12.5781 3.12659L12.8808 3.80432ZM16.5478 3.80432H17.206L16.6884 4.32971L16.8886 5.16077L16.2451 4.69397L15.58 5.16077L15.8046 4.32971L15.2138 3.80432H15.9853L16.2441 3.12659L16.5478 3.80432Z" fill="#F7FCFF"/>
</g>
<rect x="1" y="1" width="24" height="24" rx="12" stroke="#F2F2F2"/>
<defs>
<clipPath id="clip0_6_288">
<rect x="1" y="1" width="24" height="24" rx="12" fill="white"/>
</clipPath>
</defs>
</svg>
