<svg width="26" height="26" viewBox="0 0 26 26" fill="none" xmlns="http://www.w3.org/2000/svg">
<rect x="1" y="1" width="24" height="24" rx="12" fill="#F7FCFF"/>
<rect x="1" y="1" width="24" height="24" rx="12" stroke="#F2F2F2"/>
<path fill-rule="evenodd" clip-rule="evenodd" d="M12.8307 17.3279C15.1954 17.3279 17.1125 15.292 17.1125 12.7807C17.1125 10.2693 15.1954 8.2334 12.8307 8.2334C10.4659 8.2334 8.54883 10.2693 8.54883 12.7807C8.54883 15.292 10.4659 17.3279 12.8307 17.3279Z" fill="#3D58DB"/>
<mask id="mask0_6_107" style="mask-type:luminance" maskUnits="userSpaceOnUse" x="8" y="8" width="10" height="10">
<path fill-rule="evenodd" clip-rule="evenodd" d="M12.8307 17.3279C15.1954 17.3279 17.1125 15.292 17.1125 12.7807C17.1125 10.2693 15.1954 8.2334 12.8307 8.2334C10.4659 8.2334 8.54883 10.2693 8.54883 12.7807C8.54883 15.292 10.4659 17.3279 12.8307 17.3279Z" fill="white"/>
</mask>
<g mask="url(#mask0_6_107)">
<path fill-rule="evenodd" clip-rule="evenodd" d="M17.2622 13.129C17.2622 13.129 17.0219 10.9848 15.2419 10.8684C13.462 10.752 12.982 12.4409 12.8793 12.8883C12.7766 13.3357 12.5167 14.5293 10.6426 14.5293C8.76848 14.5293 8.59943 11.4943 8.59943 11.4943V7.91553H17.2622V13.129Z" fill="#E31D1C"/>
</g>
<path d="M9.30481 7.99109L6.27844 11.6219L5.60266 11.0106L8.63 7.38074L9.30481 7.99109ZM8.19641 6.99011L5.17786 10.5936L4.50208 9.9823L7.52063 6.37976L8.19641 6.99011ZM7.08215 6.00183L3.95129 9.65808L3.27551 9.04675L6.40637 5.3905L7.08215 6.00183Z" fill="#272727"/>
<path d="M18.9219 10.2544L20.0938 11.6294L20.7696 11.021L19.5977 9.646L18.9219 10.2544ZM17.9962 6.70361L21.2589 10.6772L21.9346 10.0688L18.6719 6.09521L17.9962 6.70361ZM21.1524 8.27295L22.3243 9.64893L23.0001 9.03955L21.8282 7.66455L21.1524 8.27295ZM16.8389 7.72412L18.0108 9.1001L18.6866 8.49072L17.5147 7.11572L16.8389 7.72412ZM19.0684 5.74268L20.2413 7.11865L20.9171 6.50928L19.7442 5.13428L19.0684 5.74268Z" fill="#272727"/>
<path d="M20.5167 18.811L19.335 20.1919L18.6534 19.5806L19.835 18.1997L20.5167 18.811ZM19.3946 17.7603L18.1602 19.2349L17.4796 18.6245L18.713 17.1499L19.3946 17.7603ZM18.2676 16.8218L17.086 18.2026L16.4044 17.5913L17.586 16.2104L18.2676 16.8218ZM22.4073 16.3247L21.2247 17.7056L20.543 17.0942L21.7256 15.7134L22.4073 16.3247ZM21.419 15.3042L20.1846 16.7788L19.503 16.1675L20.7374 14.6929L21.419 15.3042ZM20.2549 14.3921L19.0733 15.7729L18.3917 15.1616L19.5733 13.7808L20.2549 14.3921Z" fill="#272727"/>
<path d="M3.52289 16.8088L6.55414 20.3108L7.22992 19.7014L4.19867 16.1995L3.52289 16.8088ZM6.45062 17.8918L7.72504 19.2913L8.40082 18.6819L7.1264 17.2825L6.45062 17.8918ZM5.7475 14.8694L8.76312 18.3254L9.4389 17.7161L6.42328 14.26L5.7475 14.8694ZM4.68011 15.801L5.78363 17.0969L6.45941 16.4875L5.35492 15.1917L4.68011 15.801Z" fill="#272727"/>
</svg>
